<svg xmlns="http://www.w3.org/2000/svg" xmlns:xlink="http://www.w3.org/1999/xlink" id="Layer_1" x="0px" y="0px" viewBox="0 0 1000 335.5" style="enable-background:new 0 0 1000 335.5;" xml:space="preserve">
<style type="text/css">
	.st0{fill:#878787;}
</style>
<g>
	<path class="st0" d="M888.3,330.3H495.4c-4.2,0-7.7-3.2-8.1-7.5c-0.3-4.2,2.6-8,6.8-8.7l491.5-79.1c4.4-0.7,8.6,2.3,9.3,6.7   c0.7,4.4-2.3,8.6-6.7,9.3L596.9,314h291.4c4.5,0,8.1,3.6,8.1,8.1C896.4,326.6,892.8,330.3,888.3,330.3z"></path>
</g>
<g>
	<path class="st0" d="M107.6,99.6l-10,64.5l1.7-0.3c22.7-3.6,39.5-30.9,38.4-52c-0.8-16-12.1-28.7-39-24.4   c-33.1,5.2-69.6,33.1-67.2,79.5c0.8,14.3,4.6,16,5,18.5c-18.7,3-30.7-2.2-31.7-21c-2-38.8,45.3-82.2,98.9-90.7   c41.6-6.6,61.4,12.1,62.7,35.1c0.9,16.6-8.1,35.8-26,49.1c24.3,1,34.7,18.9,35.8,39.9c1.4,27-10.5,83.2-57.7,90.7   c-12.2,1.9-28.2,0.8-29.1-16.3c-0.2-4.5,0.6-10,2.8-16.9c7.5,6.2,13,8.1,19.5,7.1c20.7-3.3,26.5-33.6,25.4-55   c-1-19.7-8.1-34.7-28.8-31.4c-2.3,0.4-7.9,1.5-13,2.9L77.7,290.1l-40.8,6.5L66,111.8L107.6,99.6z"></path>
	<path class="st0" d="M294.8,156.9c1.2,0.4,2.3,0.2,3.1,0.1c13-2.1,31-13.4,42.7-23.8l2.9,7.2c-10.1,13.2-28.4,24.6-48.9,31.2   c-1.8,52.7-28.4,89.7-63.2,95.2c-26.3,4.2-46-5.2-47.6-37.2c-1.7-32.3,14-102.7,72.3-112C280.5,113.8,293.2,127.4,294.8,156.9z    M271.2,176.2c-6-0.5-8-5-8.3-10.6c-0.4-7.9,3-13.5,8-16.6c-1.2-11.7-4.3-15.7-11.6-14.6c-20.1,3.2-34.9,57.4-33.5,84.9   c1,18.5,4.9,22.2,15.6,20.5C255.3,237.6,268.4,210,271.2,176.2z"></path>
	<path class="st0" d="M436.9,91.6l-15.3,98.7c-0.7,3.8-0.8,6.6-0.7,9.2c0.4,7.9,4.2,9.8,12.2,8.6c11-1.8,18.1-13.6,21.6-28.3   l11.9-1.9c-13.7,48.3-38.9,58.5-54.2,61c-16.1,2.6-26.8-5.1-29.4-22.2c-12.9,25.3-28.6,31.4-40.5,33.3c-17,2.7-30.8-5.3-32.1-28.9   c-0.3-5.3,0.2-11.7,1.3-18.6l14.5-93.2l40.8-6.5l-15.3,98.7c-0.4,2.9-0.6,5.5-0.4,8c0.3,6.5,2.9,11.2,9.1,10.2   c11-1.7,17.8-13.6,21.3-28.3l14.5-93.2L436.9,91.6z"></path>
	<path class="st0" d="M517.3,34.1L510,80l17-2.7l-1.7,11.6l-17,2.7l-13.7,87.1c-0.7,3.8-0.8,6.6-0.7,9.2c0.4,7.9,4.2,9.8,12.2,8.5   c11-1.7,20.7-14,24.2-28.7l11.9-1.9c-13.7,48.3-41.4,59-56.7,61.4c-17,2.7-30.8-5.3-32.1-28.9c-0.3-5.3,0.2-11.7,1.3-18.6   l12.8-81.6l-9.3,1.5l1.7-11.6l9.3-1.5l6.4-40.1L517.3,34.1z"></path>
	<path class="st0" d="M585.6,68l-15.3,98.7c-0.7,3.8-0.8,6.6-0.7,9.2c0.4,7.9,4.2,9.8,12.2,8.5c11-1.7,20.7-14,24.2-28.7l11.9-1.9   c-13.7,48.3-41.4,59-56.7,61.4c-17,2.7-30.8-5.3-32.1-28.9c-0.3-5.3,0.2-11.7,1.3-18.6l14.5-93.2L585.6,68z M569.7,10.3   c12.5-2,23.2,6.5,23.8,18.9c0.7,12.4-9,23.8-21.5,25.8c-12.5,2-22.9-6.3-23.5-18.6C547.9,23.9,557.2,12.2,569.7,10.3z"></path>
	<path class="st0" d="M736.8,44.1L705,259.7l-42.6,6.8l13.1-85c-7.7,10-18.4,18.5-32.9,20.8c-19.3,3.1-38.3-5.8-40-39.2   c-2-37.9,18.3-102,67.6-109.8c16.1-2.6,23.3,2.5,23.7,11.2l2.1-13.9L736.8,44.1z M644.3,152.5c1.1,21.6,10.2,20.5,15.3,19.7   c7.4-1.2,17.2-9.5,21-23.4L692,77c-0.7-3.3-3.9-9-12.1-7.7C655.8,73.1,642.9,126.1,644.3,152.5z"></path>
	<path class="st0" d="M868.7,23.2l-15.3,98.7c-0.7,3.8-0.8,6.6-0.7,9.2c0.4,7.9,4.2,9.8,12.2,8.5c11-1.7,18.1-13.6,21.6-28.3   l11.9-1.9c-13.7,48.3-38.9,58.6-54.2,61c-16.1,2.6-26.8-5.1-29.4-22.2c-12.9,25.3-28.6,31.4-40.5,33.3c-17,2.7-30.8-5.3-32.1-28.9   c-0.3-5.3,0.2-11.7,1.3-18.6L758,40.7l40.8-6.5L783.5,133c-0.4,2.9-0.6,5.5-0.4,8c0.3,6.5,2.9,11.2,9.1,10.2   c11-1.7,17.8-13.6,21.3-28.3L828,29.7L868.7,23.2z"></path>
	<path class="st0" d="M943.4,127.8c10.8-1.7,24-10.9,32.6-20.2c-4.3,33-24.1,45.7-46.8,49.3c-26.3,4.2-44.6-6-46.2-37.7   c-1.7-32.3,13.1-102.9,71.2-112.1c25.2-4,31.8,8,32.6,22c1.7,32.6-28.1,62.2-62,69.6c-0.1,2.9-0.3,6-0.1,8.5   C925.5,124.9,933.5,129.3,943.4,127.8z M957.2,21.7C943,23.9,930.5,57.3,926,84.9c22-4.6,40.1-29.3,38.9-52.9   C964.5,25,962.6,20.8,957.2,21.7z"></path>
</g>
</svg>