<svg xmlns="http://www.w3.org/2000/svg" xmlns:xlink="http://www.w3.org/1999/xlink" id="Layer_1" x="0px" y="0px" viewBox="0 0 1000 343.4" style="enable-background:new 0 0 1000 343.4;" xml:space="preserve">
<style type="text/css">
	.st0{fill-rule:evenodd;clip-rule:evenodd;fill:#878787;}
	.st1{fill:#878787;}
</style>
<g>
	<path class="st0" d="M568,46.7c-1.1-1.2-2.7-1.7-4.2-1.3l-31.1,7.8L504.3,4.6c-0.8-1.3-2.2-2.1-3.7-2.1c-1.5,0-2.9,0.8-3.7,2.1   l-28.4,48.6l-31.1-7.8c-1.5-0.4-3.1,0.1-4.2,1.3c-1.1,1.2-1.4,2.8-0.9,4.3l15,42.8c0.6,1.7,2.2,2.9,4,2.9h98.4c1.8,0,3.4-1.2,4-2.9   l15-42.8C569.4,49.5,569.1,47.8,568,46.7L568,46.7z M449.3,113.8H552c2.4,0,4.3,1.9,4.3,4.3c0,2.4-1.9,4.3-4.3,4.3H449.3   c-2.4,0-4.3-1.9-4.3-4.3C445,115.7,447,113.8,449.3,113.8L449.3,113.8z M449.4,100.9h102.7c2.4,0,4.3,1.9,4.3,4.3   c0,2.4-1.9,4.3-4.3,4.3H449.4c-2.3,0-4.3-1.9-4.3-4.3C445.1,102.8,447.1,100.9,449.4,100.9z"></path>
	<path class="st0" d="M656.8,94.9c-0.2,0-0.4-0.1-0.5-0.2c-0.4-0.2-0.5-0.7-0.4-1.1l3.4-10.3l-7.8-5.6c-0.3-0.2-0.5-0.7-0.4-1.1   c0.1-0.4,0.5-0.7,0.9-0.7h9.7l3.6-10.7c0.1-0.4,0.5-0.6,0.9-0.6c0.4,0,0.8,0.3,0.9,0.6l3.6,10.7h9.7c0.4,0,0.8,0.3,0.9,0.7   c0.1,0.4,0,0.8-0.4,1.1l-7.8,5.6l3.4,10.3c0.1,0.4,0,0.8-0.4,1.1c-0.2,0.1-0.4,0.2-0.5,0.2c-0.2,0-0.4-0.1-0.6-0.2l-8.9-6.4   l-8.9,6.4C657.2,94.8,657,94.9,656.8,94.9L656.8,94.9z M344.5,94.9c0.2,0,0.4-0.1,0.5-0.2c0.3-0.2,0.5-0.7,0.4-1.1l-3.4-10.3   l7.8-5.6c0.3-0.2,0.5-0.7,0.3-1.1c-0.1-0.4-0.5-0.7-0.9-0.7h-9.7L336,65.4c-0.1-0.4-0.5-0.6-0.9-0.6s-0.8,0.3-0.9,0.6L330.6,76   h-9.7c-0.4,0-0.8,0.3-0.9,0.7c-0.1,0.4,0,0.8,0.4,1.1l7.8,5.6l-3.4,10.3c-0.1,0.4,0,0.8,0.3,1.1c0.2,0.1,0.4,0.2,0.6,0.2   c0.2,0,0.4-0.1,0.5-0.2l8.9-6.4l8.9,6.4C344.1,94.8,344.3,94.9,344.5,94.9L344.5,94.9z M401.6,94.9c0.3,0,0.5-0.1,0.7-0.2   c0.4-0.3,0.6-0.9,0.4-1.4l-4.4-13.4l10.1-7.3c0.4-0.3,0.6-0.9,0.5-1.4c-0.2-0.5-0.7-0.9-1.2-0.9h-12.6l-4.6-13.8   c-0.2-0.5-0.6-0.8-1.2-0.8c-0.5,0-1,0.3-1.1,0.8l-4.6,13.8h-12.6c-0.5,0-1,0.4-1.2,0.9c-0.2,0.5,0,1.1,0.5,1.4l10.1,7.3l-4.4,13.4   c-0.2,0.5,0,1.1,0.4,1.4c0.2,0.1,0.5,0.2,0.7,0.2c0.3,0,0.5-0.1,0.7-0.2l11.5-8.3l11.5,8.3C401.2,94.8,401.4,94.9,401.6,94.9   L401.6,94.9z M599.7,94.9c-0.3,0-0.5-0.1-0.7-0.2c-0.4-0.3-0.6-0.9-0.4-1.4l4.4-13.4l-10.1-7.3c-0.4-0.3-0.6-0.9-0.5-1.4   c0.2-0.5,0.6-0.9,1.2-0.9h12.6l4.6-13.8c0.2-0.5,0.6-0.8,1.1-0.8c0.5,0,1,0.3,1.2,0.8l4.6,13.8h12.6c0.5,0,1,0.4,1.2,0.9   c0.2,0.5,0,1.1-0.5,1.4l-10.1,7.3l4.4,13.4c0.2,0.5,0,1.1-0.4,1.4c-0.2,0.1-0.5,0.2-0.7,0.2c-0.2,0-0.5-0.1-0.7-0.2l-11.5-8.3   l-11.5,8.3C600.2,94.8,599.9,94.9,599.7,94.9z"></path>
	<path class="st1" d="M884.8,326.7H686.2c-1.4,0-2.6-1.2-2.6-2.6s1.2-2.6,2.6-2.6h198.5c57.9,0,105.1-47.1,105.1-105.1   c0-57.9-47.1-105.1-105.1-105.1H573.7c-1.4,0-2.6-1.2-2.6-2.6c0-1.4,1.2-2.6,2.6-2.6h311.1c60.8,0,110.3,49.5,110.3,110.3   S945.6,326.7,884.8,326.7z M315.1,326.7H116.6c-60.8,0-110.3-49.5-110.3-110.3s49.5-110.3,110.3-110.3h311.1c1.4,0,2.6,1.2,2.6,2.6   c0,1.4-1.2,2.6-2.6,2.6H116.6c-57.9,0-105.1,47.1-105.1,105.1c0,57.9,47.1,105.1,105.1,105.1h198.5c1.4,0,2.6,1.2,2.6,2.6   S316.5,326.7,315.1,326.7z"></path>
	<g>
		<path class="st1" d="M134.8,217.9c0,7.1-2.6,11.7-7.7,13.9l7.3,27.7c0.3,1.3-0.3,1.9-1.5,1.9h-11c-1.1,0-1.6-0.5-1.8-1.5    l-7.1-26.8h-7.3v26.6c0,1-0.6,1.7-1.7,1.7H93c-1.1,0-1.7-0.7-1.7-1.7v-81.2c0-1.1,0.6-1.7,1.7-1.7h26.5c9.9,0,15.2,5.3,15.2,15.2    V217.9z M116.1,219.1c2.8,0,4.2-1.5,4.2-4.2V195c0-2.8-1.5-4.2-4.2-4.2h-10.5v28.3H116.1z"></path>
		<path class="st1" d="M221,189.1c0,1.1-0.4,1.8-1.7,1.8h-26.4V212H213c1.1,0,1.7,0.6,1.7,1.8v10.5c0,1.2-0.7,1.8-1.7,1.8h-20.2    v21.3h26.4c1.3,0,1.7,0.5,1.7,1.7v10.6c0,1-0.4,1.7-1.7,1.7h-38.9c-1,0-1.6-0.7-1.6-1.7v-81.2c0-1.1,0.6-1.7,1.6-1.7h38.9    c1.3,0,1.7,0.6,1.7,1.7V189.1z"></path>
		<path class="st1" d="M303.5,176.9c1.2,0,1.7,0.6,1.7,1.7v10.6c0,1.1-0.5,1.7-1.7,1.7h-12.3v68.9c0,1.2-0.5,1.7-1.7,1.7h-11    c-1.1,0-1.7-0.5-1.7-1.7v-68.9h-12.3c-1.1,0-1.7-0.6-1.7-1.7v-10.6c0-1.1,0.6-1.7,1.7-1.7H303.5z"></path>
		<path class="st1" d="M390.5,217.9c0,7.1-2.6,11.7-7.7,13.9l7.3,27.7c0.3,1.3-0.3,1.9-1.5,1.9h-11c-1.1,0-1.6-0.5-1.8-1.5    l-7.1-26.8h-7.3v26.6c0,1-0.6,1.7-1.7,1.7h-11c-1.1,0-1.7-0.7-1.7-1.7v-81.2c0-1.1,0.6-1.7,1.7-1.7h26.5c9.9,0,15.2,5.3,15.2,15.2    V217.9z M371.9,219.1c2.7,0,4.2-1.5,4.2-4.2V195c0-2.8-1.5-4.2-4.2-4.2h-10.5v28.3H371.9z"></path>
		<path class="st1" d="M432.5,192.1c0-9.9,5.3-15.2,15.2-15.2h11.8c9.9,0,15.2,5.3,15.2,15.2v54.1c0,9.9-5.3,15.2-15.2,15.2h-11.8    c-9.9,0-15.2-5.3-15.2-15.2V192.1z M456.9,247.8c2.8,0,4.2-1.4,4.2-4.2v-48.8c0-2.8-1.5-4.2-4.2-4.2h-6.1c-2.7,0-4.2,1.5-4.2,4.2    v48.8c0,2.8,1.5,4.2,4.2,4.2H456.9z"></path>
		<path class="st1" d="M561.1,211.5c0,3.9-2.8,6.9-6.7,7.5v0.2c3.8,0.7,6.7,3.6,6.7,7.5v19.4c0,9.9-5.4,15.2-15.3,15.2h-25.4    c-1.1,0-1.7-0.7-1.7-1.7v-81.2c0-1.2,0.6-1.7,1.7-1.7h25.4c9.9,0,15.3,5.3,15.3,15.2V211.5z M547.1,195c0-2.8-1.4-4.2-4.2-4.2    h-9.6v21.3h9.6c2.7,0,4.2-1.5,4.2-4.1V195z M547.1,230.3c0-2.8-1.4-4.2-4.2-4.2h-9.6v21.3h9.6c2.7,0,4.2-1.4,4.2-4.2V230.3z"></path>
		<path class="st1" d="M648.6,217.9c0,7.1-2.6,11.7-7.7,13.9l7.3,27.7c0.3,1.3-0.3,1.9-1.5,1.9h-11c-1.1,0-1.6-0.5-1.8-1.5    l-7.1-26.8h-7.3v26.6c0,1-0.6,1.7-1.7,1.7h-11c-1.1,0-1.7-0.7-1.7-1.7v-81.2c0-1.1,0.6-1.7,1.7-1.7h26.5c9.9,0,15.2,5.3,15.2,15.2    V217.9z M630,219.1c2.8,0,4.2-1.5,4.2-4.2V195c0-2.8-1.5-4.2-4.2-4.2h-10.5v28.3H630z"></path>
		<path class="st1" d="M729.2,261.4c-0.9,0-1.5-0.5-1.7-1.5l-3-15.4h-18.8l-2.9,15.4c-0.2,0.9-0.7,1.5-1.7,1.5h-11.3    c-1.2,0-1.7-0.7-1.4-1.8l17.5-81.3c0.2-1.1,0.9-1.5,1.8-1.5h14.7c0.9,0,1.6,0.4,1.8,1.5l17.5,81.3c0.2,1.2-0.2,1.8-1.5,1.8H729.2z     M715.2,195.3l-6.8,36.9h13.5L715.2,195.3z"></path>
		<path class="st1" d="M827.3,176.9c1.1,0,1.7,0.6,1.7,1.7v81.2c0,1-0.6,1.7-1.7,1.7h-10.5c-0.9,0-1.6-0.4-1.9-1.4l-16.2-45.1h-0.5    v44.8c0,1-0.5,1.7-1.7,1.7h-11c-1.1,0-1.7-0.7-1.7-1.7v-81.2c0-1.1,0.6-1.7,1.7-1.7H796c0.9,0,1.6,0.4,1.9,1.4l16.1,44.9h0.6    v-44.6c0-1.1,0.5-1.7,1.7-1.7H827.3z"></path>
		<path class="st1" d="M873,178.6c0-1.1,0.5-1.7,1.7-1.7h25.4c9.9,0,15.2,5.4,15.2,15.3v54c0,9.9-5.3,15.2-15.2,15.2h-25.4    c-1.2,0-1.7-0.5-1.7-1.7V178.6z M897.1,247.4c2.7,0,4.2-1.4,4.2-4.2v-48.1c0-2.9-1.5-4.3-4.2-4.3h-9.7v56.6H897.1z"></path>
	</g>
	<g>
		<path class="st1" d="M352.7,318.8c0,0.3-0.1,0.5-0.4,0.5h-7.1v5.7h5.4c0.3,0,0.5,0.2,0.5,0.5v2.8c0,0.3-0.2,0.5-0.5,0.5h-5.4v5.7    h7.1c0.3,0,0.4,0.1,0.4,0.5v2.8c0,0.3-0.1,0.5-0.4,0.5h-10.4c-0.2,0-0.4-0.2-0.4-0.5v-21.7c0-0.3,0.2-0.4,0.4-0.4h10.4    c0.3,0,0.4,0.2,0.4,0.4V318.8z"></path>
		<path class="st1" d="M370.8,315.5c2.7,0,4.1,1.4,4.1,4.1v3c0,0.3-0.1,0.5-0.5,0.5h-2.9c-0.3,0-0.5-0.2-0.5-0.5v-2.2    c0-0.7-0.4-1.1-1.1-1.1h-1.4c-0.7,0-1.1,0.4-1.1,1.1v3.9l6.7,2.2c0.5,0.2,0.7,0.5,0.7,1.1v6.5c0,2.7-1.4,4.1-4.1,4.1h-3.2    c-2.6,0-4.1-1.4-4.1-4.1v-3c0-0.3,0.2-0.4,0.4-0.4h3c0.3,0,0.4,0.1,0.4,0.4v2.2c0,0.8,0.4,1.1,1.1,1.1h1.4c0.7,0,1.1-0.4,1.1-1.1    v-3.8l-6.7-2.2c-0.5-0.2-0.8-0.5-0.8-1v-6.7c0-2.7,1.4-4.1,4.1-4.1H370.8z"></path>
		<path class="st1" d="M396.4,315.5c0.3,0,0.4,0.2,0.4,0.4v2.8c0,0.3-0.1,0.4-0.4,0.4h-3.3v18.4c0,0.3-0.1,0.5-0.5,0.5h-2.9    c-0.3,0-0.5-0.1-0.5-0.5v-18.4H386c-0.3,0-0.5-0.2-0.5-0.4v-2.8c0-0.3,0.2-0.4,0.5-0.4H396.4z"></path>
		<path class="st1" d="M416.1,338.1c-0.2,0-0.4-0.1-0.4-0.4l-0.8-4.1h-5l-0.8,4.1c-0.1,0.3-0.2,0.4-0.4,0.4h-3    c-0.3,0-0.4-0.2-0.4-0.5l4.7-21.7c0.1-0.3,0.2-0.4,0.5-0.4h3.9c0.3,0,0.4,0.1,0.5,0.4l4.7,21.7c0.1,0.3-0.1,0.5-0.4,0.5H416.1z     M412.3,320.4l-1.8,9.9h3.6L412.3,320.4z"></path>
		<path class="st1" d="M442.3,324.8c0,1-0.8,1.8-1.8,2v0.1c1,0.2,1.8,0.9,1.8,2v5.2c0,2.7-1.5,4.1-4.1,4.1h-6.8    c-0.3,0-0.5-0.2-0.5-0.5v-21.7c0-0.3,0.2-0.4,0.5-0.4h6.8c2.7,0,4.1,1.4,4.1,4.1V324.8z M438.5,320.3c0-0.7-0.4-1.1-1.1-1.1h-2.6    v5.7h2.6c0.7,0,1.1-0.4,1.1-1.1V320.3z M438.5,329.8c0-0.7-0.4-1.1-1.1-1.1h-2.6v5.7h2.6c0.7,0,1.1-0.4,1.1-1.1V329.8z"></path>
		<path class="st1" d="M457.9,334.4h6.7c0.3,0,0.4,0.2,0.4,0.5v2.8c0,0.3-0.1,0.5-0.4,0.5h-10.1c-0.3,0-0.4-0.1-0.4-0.5v-21.7    c0-0.3,0.2-0.4,0.4-0.4h3c0.3,0,0.4,0.2,0.4,0.4V334.4z"></path>
		<path class="st1" d="M479.6,315.5c0.3,0,0.4,0.2,0.4,0.4v21.7c0,0.3-0.2,0.5-0.4,0.5h-2.9c-0.3,0-0.4-0.2-0.4-0.5v-21.7    c0-0.3,0.1-0.4,0.4-0.4H479.6z"></path>
		<path class="st1" d="M499.1,315.5c2.7,0,4.1,1.4,4.1,4.1v3c0,0.3-0.1,0.5-0.4,0.5h-3c-0.3,0-0.4-0.2-0.4-0.5v-2.2    c0-0.7-0.4-1.1-1.1-1.1h-1.4c-0.7,0-1.1,0.4-1.1,1.1v3.9l6.7,2.2c0.5,0.2,0.7,0.5,0.7,1.1v6.5c0,2.7-1.4,4.1-4.1,4.1h-3.2    c-2.6,0-4.1-1.4-4.1-4.1v-3c0-0.3,0.2-0.4,0.5-0.4h2.9c0.3,0,0.5,0.1,0.5,0.4v2.2c0,0.8,0.4,1.1,1.1,1.1h1.4    c0.7,0,1.1-0.4,1.1-1.1v-3.8l-6.7-2.2c-0.5-0.2-0.8-0.5-0.8-1v-6.7c0-2.7,1.4-4.1,4.1-4.1H499.1z"></path>
		<path class="st1" d="M522.3,315.9c0-0.3,0.2-0.4,0.4-0.4h2.9c0.3,0,0.5,0.2,0.5,0.4v21.7c0,0.3-0.1,0.5-0.5,0.5h-2.9    c-0.3,0-0.4-0.2-0.4-0.5v-9h-3.6v9c0,0.3-0.2,0.5-0.4,0.5h-2.9c-0.3,0-0.5-0.2-0.5-0.5v-21.7c0-0.3,0.1-0.4,0.5-0.4h2.9    c0.3,0,0.4,0.2,0.4,0.4v9h3.6V315.9z"></path>
		<path class="st1" d="M549.2,318.8c0,0.3-0.1,0.5-0.5,0.5h-7.1v5.7h5.4c0.3,0,0.4,0.2,0.4,0.5v2.8c0,0.3-0.2,0.5-0.4,0.5h-5.4v5.7    h7.1c0.4,0,0.5,0.1,0.5,0.5v2.8c0,0.3-0.1,0.5-0.5,0.5h-10.4c-0.3,0-0.4-0.2-0.4-0.5v-21.7c0-0.3,0.2-0.4,0.4-0.4h10.4    c0.4,0,0.5,0.2,0.5,0.4V318.8z"></path>
		<path class="st1" d="M560.7,315.9c0-0.3,0.1-0.4,0.4-0.4h6.8c2.7,0,4.1,1.5,4.1,4.1V334c0,2.7-1.4,4.1-4.1,4.1h-6.8    c-0.3,0-0.4-0.1-0.4-0.5V315.9z M567.1,334.4c0.7,0,1.1-0.4,1.1-1.1v-12.9c0-0.8-0.4-1.2-1.1-1.2h-2.6v15.2H567.1z"></path>
		<path class="st1" d="M596.5,315.5c0.3,0,0.4,0.2,0.4,0.4v21.7c0,0.3-0.2,0.5-0.4,0.5h-2.9c-0.3,0-0.4-0.2-0.4-0.5v-17.9l-1.7,0.2    c-0.4,0.1-0.6-0.1-0.6-0.5v-2.7c0-0.4,0.2-0.6,0.5-0.6L596.5,315.5z"></path>
		<path class="st1" d="M613,329.4c-2.6,0-4-1.4-4-4v-6c0-2.6,1.4-4,4-4h3.4c2.6,0,4,1.4,4,4v7.3c0,0.5-0.1,0.9-0.3,1.4l-4,9.5    c-0.1,0.3-0.3,0.4-0.7,0.4h-2.9c-0.4,0-0.6-0.3-0.4-0.7l3.4-8.1H613z M613.9,319.2c-0.7,0-1.1,0.4-1.1,1.1v4.1    c0,0.7,0.4,1.1,1.1,1.1h1.6c0.7,0,1.1-0.4,1.1-1.1v-4.1c0-0.7-0.4-1.1-1.1-1.1H613.9z"></path>
		<path class="st1" d="M636,329.4c-2.6,0-4-1.4-4-4v-6c0-2.6,1.4-4,4-4h3.4c2.6,0,4,1.4,4,4v7.3c0,0.5-0.1,0.9-0.3,1.4l-4,9.5    c-0.1,0.3-0.3,0.4-0.7,0.4h-2.9c-0.4,0-0.6-0.3-0.4-0.7l3.4-8.1H636z M636.9,319.2c-0.7,0-1.1,0.4-1.1,1.1v4.1    c0,0.7,0.4,1.1,1.1,1.1h1.6c0.7,0,1.1-0.4,1.1-1.1v-4.1c0-0.7-0.4-1.1-1.1-1.1H636.9z"></path>
		<path class="st1" d="M660.9,315.5c0.3,0,0.5,0.2,0.5,0.4v21.7c0,0.3-0.2,0.5-0.5,0.5h-2.9c-0.3,0-0.5-0.2-0.5-0.5v-17.9l-1.8,0.2    c-0.4,0.1-0.6-0.1-0.6-0.5v-2.7c0-0.4,0.2-0.6,0.5-0.6L660.9,315.5z"></path>
	</g>
</g>
</svg>