<svg xmlns="http://www.w3.org/2000/svg" xmlns:xlink="http://www.w3.org/1999/xlink" id="Layer_1" x="0px" y="0px" viewBox="0 0 1000 344.5" style="enable-background:new 0 0 1000 344.5;" xml:space="preserve">
<style type="text/css">
	.st0{fill:#878787;}
</style>
<g>
	<g>
		<path class="st0" d="M16.5,249.6c3.4,11.3,8.5,21.9,15,31.4c2.2-7.8,4.4-15.3,6.6-22.5C31.2,255.7,24,252.8,16.5,249.6z"></path>
		<path class="st0" d="M47.7,262.3c-2.1,7-4.4,14.5-6.7,22.8c-0.3,1.2-0.7,2.4-1,3.6c0,0,0,0,0,0c0,0,0,0,0,0c0,0,0,0,0,0    c0,0,0,0,0,0c0,0,0,0,0,0c0,0,0,0,0,0c0,0,0,0,0,0.1c0,0,0,0,0,0c0,0,0,0.1,0,0.1c0,0,0,0,0,0c0,0,0,0,0,0c0,0,0,0,0,0    c0,0,0,0,0,0c0,0,0,0,0,0c0,0,0,0,0,0c-0.1,0.6-0.3,1.2-0.7,1.7c2.1,2.4,4.3,4.8,6.6,7.1c7.5-9.3,12.7-19.6,15.3-30.6    C56.8,265.8,52.4,264.1,47.7,262.3z"></path>
		<path class="st0" d="M45.6,235c-10.2-4.8-21.5-7.2-33.4-7.2c0.3,3.3,0.8,6.5,1.4,9.6c0.5,0,0.9,0.1,1.4,0.3c0,0,0,0,0.1,0    c0,0,0,0,0,0c0,0,0,0,0,0s0,0,0,0l0,0c0,0,0,0,0,0c0,0,0,0,0,0l0,0l0,0l0,0c0,0,0,0,0,0c0,0,0,0,0,0l0,0c0,0,0,0,0,0l0,0    c0,0,0,0,0,0s0,0,0,0c0,0,0,0,0,0l0,0c0,0,0,0,0,0c0,0,0,0,0,0l0,0c0,0,0,0,0,0l0,0c0,0,0,0,0,0c0,0,0,0,0,0c0,0,0,0,0,0    c0,0,0,0,0,0c0,0,0,0,0,0l0,0l0,0c0,0,0,0,0.1,0c0,0,0,0,0,0c0,0,0,0,0,0c0,0,0,0,0,0c0,0,0,0,0,0c0,0,0,0,0,0c0,0,0,0,0,0    c0,0,0,0,0,0c0,0,0,0,0,0c0,0,0,0,0.1,0l0,0c1,0.4,2.1,0.9,3.1,1.3c0,0,0,0,0,0c0,0,0,0,0,0c8,3.4,15.5,6.5,22.4,9.2    C42.7,243.9,44.2,239.4,45.6,235z"></path>
		<path class="st0" d="M63,309.9C63,309.9,63,309.9,63,309.9C63,309.9,63,309.9,63,309.9c0.1,0,0.1,0,0.1-0.1c0,0,0,0,0,0    c0,0,0,0,0,0c1.3-0.5,2.6-1,3.9-1.6c7.9-3.2,15.2-6.2,21.8-9.1c-2.3-4.4-4.5-8.7-6.5-12.8c-10.6,3.8-20.3,10.1-28.7,18.6    c2.5,2,5.1,4,7.8,5.8c0.4-0.3,0.8-0.5,1.2-0.7L63,309.9z"></path>
		<path class="st0" d="M38.2,193.5C31.6,197,24.6,200.8,17,205h0c0,0,0,0,0,0c-1,0.5-1.9,1.1-2.9,1.7c0,0,0,0-0.1,0c0,0,0,0,0,0    c0,0,0,0,0,0c0,0,0,0,0,0c0,0,0,0,0,0c0,0,0,0,0,0c0,0,0,0,0,0c0,0,0,0,0,0c0,0,0,0,0,0c0,0,0,0,0,0c0,0,0,0,0,0c0,0,0,0-0.1,0    c0,0,0,0,0,0c0,0,0,0,0,0c0,0,0,0,0,0c0,0,0,0,0,0c0,0,0,0,0,0c0,0,0,0,0,0c0,0,0,0,0,0c0,0,0,0,0,0c0,0,0,0,0,0c0,0,0,0,0,0    c0,0,0,0,0,0c0,0,0,0,0,0c0,0,0,0,0,0l0,0c0,0,0,0,0,0c0,0,0,0,0,0c0,0,0,0,0,0c0,0,0,0,0,0c0,0,0,0,0,0c0,0,0,0,0,0c0,0,0,0,0,0    l0,0c0,0,0,0,0,0c0,0,0,0,0,0c-0.4,0.2-0.9,0.4-1.4,0.5c-0.2,3.2-0.4,6.5-0.3,9.7c11.9-1.3,22.8-4.9,32.5-10.8    C42.1,202.4,40.2,198,38.2,193.5z"></path>
		<path class="st0" d="M56,172.7c-3.8-10.7-10.1-20.3-18.6-28.7c-2.1,2.5-4,5.1-5.8,7.8c0.3,0.4,0.6,0.7,0.7,1.2c0,0,0,0,0,0.1l0,0    c0,0,0,0,0,0c0,0,0,0,0,0v0c0,0,0,0,0,0c0,0,0,0,0,0v0c0,0,0,0,0,0l0,0c0,0,0,0,0,0c0,0,0,0,0,0l0,0c0,0,0,0,0,0v0c0,0,0,0,0,0    c0,0,0,0,0,0l0,0c0,0,0,0,0,0l0,0c0,0,0,0,0,0c0,0,0,0,0,0l0,0c0,0,0,0,0,0c0,0,0,0,0,0.1c0,0,0,0,0,0c0,0,0,0,0,0c0,0,0,0,0,0    c0,0,0,0,0,0c0,0,0,0,0,0c0,0,0,0,0,0c0,0,0,0,0,0c0,0,0,0,0,0c0,0,0,0,0,0.1c0,0,0,0,0,0c0.4,1.1,0.9,2.1,1.3,3.2    c3.3,8.1,6.3,15.5,9.3,22.2C47.6,177,51.8,174.8,56,172.7z"></path>
		<path class="st0" d="M80,138.1c-7-2.1-14.5-4.4-22.8-6.7c-1.3-0.4-2.6-0.7-3.9-1.1c0,0,0,0,0,0c0,0,0,0,0,0c0,0,0,0,0,0    c0,0,0,0,0,0c0,0,0,0,0,0c0,0,0,0,0,0c0,0,0,0,0,0c0,0,0,0,0,0c0,0,0,0-0.1,0c0,0,0,0,0,0c0,0,0,0-0.1,0c0,0,0,0,0,0c0,0,0,0,0,0    c-0.5-0.1-1-0.4-1.4-0.6c-2.5,2.1-4.8,4.3-7.1,6.6c9.3,7.5,19.6,12.7,30.6,15.3C76.6,147.2,78.3,142.7,80,138.1z"></path>
		<path class="st0" d="M25.1,162.5c-5.4,10.1-9.3,21.2-11.5,32.8c7.1-4,13.9-7.7,20.5-11.2C31.1,177.2,28.1,170,25.1,162.5z"></path>
		<path class="st0" d="M72.1,317.3c10.1,5.4,21.2,9.3,32.8,11.5c-4-7.1-7.7-13.9-11.2-20.5C86.8,311.2,79.6,314.2,72.1,317.3z"></path>
		<path class="st0" d="M107.3,136c4.8-10.2,7.2-21.5,7.1-33.4c-3.2,0.3-6.4,0.8-9.6,1.4c-0.1,0.5-0.2,0.9-0.4,1.4c0,0,0,0,0,0    c0,0,0,0,0,0c0,0,0,0,0,0c0,0,0,0,0,0c0,0,0,0,0,0c0,0,0,0,0,0c0,0,0,0,0,0c0,0,0,0,0,0c0,0,0,0,0,0c0,0,0,0,0,0c0,0,0,0,0,0    c0,0,0,0,0,0c0,0,0,0,0,0c0,0,0,0,0,0v0c0,0,0,0,0,0s0,0,0,0c0,0,0,0,0,0c0,0,0,0,0,0c0,0,0,0,0,0c0,0,0,0,0,0c0,0,0,0,0,0    c0,0,0,0,0,0c0,0,0,0,0,0c0,0,0,0,0,0c-4,9.4-7.5,17.9-10.6,25.8C98.4,133.1,103,134.5,107.3,136z"></path>
		<path class="st0" d="M92.7,106.9c-11.3,3.4-21.9,8.5-31.4,15c7.8,2.2,15.3,4.4,22.5,6.6C86.6,121.6,89.6,114.4,92.7,106.9z"></path>
		<path class="st0" d="M68.8,229.4c1.9-4.9,5.3-8.1,9.7-10.4c-4.6-1.9-8.3-4.7-10.7-9.3c-1.6,3-3.2,6.4-4.9,10.2    C64.9,223.4,66.9,226.6,68.8,229.4z"></path>
		<path class="st0" d="M77.5,239.6c2.4,2,4.6,3.3,6.6,3.7c5.7,1.1,12.1-4.1,20.2-10.6c0,0,0.1-0.1,0.1-0.1c1.7-2.7,3.5-5.5,5.1-8.4    c-3.1-0.5-6.2-0.9-9.2-1.2c-0.3,0-0.5,0-0.8,0C82.9,226.7,77.1,228.6,77.5,239.6z"></path>
		<path class="st0" d="M117.6,216.8c0.2,4.5,4,7.6,8.5,7.4l-0.8-16C120.8,208.5,117.4,212.3,117.6,216.8z"></path>
		<path class="st0" d="M99.1,212.6c0.1,0,0.1,0,0.2,0c3.1-0.7,6.3-1.4,9.5-2.3c-1.9-2.6-3.8-5-5.7-7.4c-0.2-0.2-0.4-0.3-0.6-0.5    c-8.7-5.6-15.6-10-21.1-8.3c-2,0.6-4.1,2.1-6.2,4.4C76,209.6,82.1,210.8,99.1,212.6z"></path>
		<path class="st0" d="M98.9,176.6c0.3,5.1,5.1,11.1,10.7,18.1c0,0.1,0.1,0.1,0.1,0.2c2.7,1.7,5.5,3.5,8.4,5.2    c0.5-2.9,0.8-5.8,1.1-8.7c0-0.5,0-1,0-1.4c-2.2-10.1-4-18.1-9.1-20.7c-1.9-1-4.3-1.4-7.4-1.3C100,171,98.7,173.9,98.9,176.6    C98.9,176.6,98.9,176.6,98.9,176.6z"></path>
		<path class="st0" d="M62.9,256.9c0.3-3.4,0.4-6.7,0.2-10c0-0.1,0-0.2,0-0.3c-2.1-1.9-4.8-4.1-8.2-6.3c-1.3,3.8-2.7,7.9-4.1,12.2    C55.1,254,59.1,255.5,62.9,256.9z"></path>
		<path class="st0" d="M52.7,200.4c3.1-2.6,5.6-5.1,7.4-7.2c0-0.1,0-0.2,0-0.2c-0.2-3.3-0.6-6.6-1.3-10c-3.6,1.7-7.5,3.7-11.5,5.7    C49.2,192.9,51,196.8,52.7,200.4z"></path>
		<path class="st0" d="M76.3,185.2c0.7-0.3,1.4-0.6,2.1-0.8c4.1-1.3,8-1,12,0.1c-1-2.4-1.6-4.8-1.7-7.3c0,0,0,0,0,0    c-0.1-2.3,0.2-4.6,0.9-6.8c-3.2,1-6.8,2.2-10.7,3.7C77.8,178.2,76.9,181.9,76.3,185.2z"></path>
		<path class="st0" d="M94.7,266c-0.9-2.1-1.5-4.3-1.6-6.6c-0.1-2.5,0.2-5,0.9-7.5c-3.8,1.6-7.7,2.2-11.9,1.4    c-0.7-0.1-1.5-0.3-2.2-0.6c1,3.2,2.2,6.8,3.7,10.7C87.8,264.5,91.4,265.4,94.7,266z"></path>
		<path class="st0" d="M103.1,304.2c3.5,6.5,7.3,13.5,11.5,21.1c0.6,1,1.1,2,1.7,3c0,0,0,0,0,0c0,0,0,0,0,0c0,0,0,0,0,0c0,0,0,0,0,0    c0,0,0,0,0,0l0,0c0,0,0,0,0,0c0,0,0,0,0,0c0,0,0,0,0,0c0,0,0,0,0,0c0,0,0,0,0,0.1c0,0,0,0,0,0c0,0,0,0,0,0l0,0c0,0,0,0,0,0    c0,0,0,0,0,0c0,0,0,0,0,0v0l0,0c0,0,0,0,0,0c0,0,0,0,0,0c0,0,0,0,0,0l0,0c0,0,0,0,0,0c0,0,0,0,0,0l0,0c0,0,0,0,0,0c0,0,0,0,0,0    c0,0,0,0,0,0v0c0,0,0,0,0,0h0v0c0,0,0,0,0,0c0,0,0,0,0,0c0,0,0,0,0,0l0,0c0,0,0,0,0,0l0,0c0,0,0,0,0,0c0,0,0,0,0,0    c0.2,0.4,0.4,0.9,0.5,1.3c3.2,0.2,6.4,0.4,9.6,0.3c-1.3-11.9-4.9-22.8-10.8-32.4C112,300.2,107.6,302.2,103.1,304.2z"></path>
		<path class="st0" d="M92.6,283.5c1.7,3.6,3.7,7.5,5.7,11.5c4.1-1.8,8-3.6,11.6-5.4c-2.6-3.1-5.1-5.6-7.2-7.4    C99.9,282.3,96.5,282.7,92.6,283.5z"></path>
		<path class="st0" d="M130.7,304.4l-0.7-12.6c-1.5,0.7-3,1.5-4.6,2.2C127.5,297.3,129.2,300.8,130.7,304.4z"></path>
		<path class="st0" d="M115.4,265c4.8-3.3,5.7-11.4,6.8-21.8v0c0-0.1,0-0.2,0-0.3c-0.7-3.1-1.4-6.2-2.3-9.4c-2.5,1.9-5,3.8-7.3,5.6    c-0.2,0.2-0.5,0.5-0.7,0.7c-4.8,7.5-8.9,13.9-8.6,19c0.1,2.7,1.7,5.4,4.8,8.2C111.2,266.9,113.7,266.2,115.4,265z"></path>
		<path class="st0" d="M121.2,273.5c-0.6,0.4-1.3,0.8-2,1.2c3,1.6,6.4,3.2,10.2,4.9l-0.8-15.4C127,267.9,124.7,271.1,121.2,273.5z"></path>
		<path class="st0" d="M70.8,270.9c-1,3.8-2.2,7.5-3.7,11.1c3.4-1.9,7-3.5,10.6-4.9c-0.7-1.6-1.5-3.1-2.2-4.6    C74.1,272,72.5,271.4,70.8,270.9z"></path>
		<path class="st0" d="M48.4,215.9c-3.4,2-6.8,3.7-10.4,5.3c3.7,1.1,7.4,2.5,11,4.1c0.6-1.6,1.1-3.2,1.7-4.8    C49.9,219,49.2,217.5,48.4,215.9z"></path>
		<path class="st0" d="M121.8,141l-0.7-12.5c-1.1,3.7-2.5,7.3-4,10.8C118.7,139.9,120.2,140.5,121.8,141z"></path>
		<path class="st0" d="M60.4,157.6c1.9,3.4,3.5,7,4.9,10.6c1.6-0.8,3.1-1.5,4.6-2.2c0.5-1.6,1.1-3.2,1.7-4.8    C67.7,160.3,64,159,60.4,157.6z"></path>
		<path class="st0" d="M85.5,153.3c4,0.4,7.5,0.3,10.3,0.2c1.9-2.1,4.1-4.8,6.3-8.1c-3.8-1.3-7.9-2.7-12.2-4.1    C88.3,145.5,86.8,149.5,85.5,153.3z"></path>
		<path class="st0" d="M114.9,160.1c3.8,2,6.4,4.9,8.4,8.5l-0.8-15.3c-3.6,2.1-6.8,4.1-9.5,6C113.6,159.5,114.3,159.8,114.9,160.1z"></path>
	</g>
	<g>
		<path class="st0" d="M125.7,335.8c-28.9,0-56.5-10.3-78.6-29.4c-24.3-21-38.9-50.3-41.2-82.3c-2.3-32,8-63.1,29.1-87.3    c21-24.2,50.1-38.8,82.1-41.2l303.5-47.7H226.6c-3,0-5.4-2.4-5.4-5.4c0-3,2.4-5.4,5.4-5.4h263.6c2.8,0,5.2,2.2,5.4,5    c0.2,2.8-1.8,5.4-4.6,5.8l-372.5,58.5c-0.1,0-0.3,0-0.5,0.1c-29.1,2.1-55.7,15.4-74.9,37.5c-19.1,22.1-28.5,50.3-26.4,79.4    c2.1,29.1,15.4,55.7,37.5,74.9c22.1,19.1,50.3,28.5,79.4,26.4c3.1-0.3,5.6,2,5.8,5c0.2,3-2,5.6-5,5.8    C131.5,335.7,128.6,335.8,125.7,335.8z"></path>
	</g>
</g>
<g>
	<g>
		<path class="st0" d="M984.4,93.2c-3.4-11.3-8.5-21.9-15-31.4c-2.2,7.8-4.4,15.3-6.6,22.5C969.7,87.1,976.9,90,984.4,93.2z"></path>
		<path class="st0" d="M953.2,80.5c2.1-7,4.4-14.5,6.7-22.8c0.3-1.2,0.7-2.4,1-3.6c0,0,0,0,0,0c0,0,0,0,0,0c0,0,0,0,0,0c0,0,0,0,0,0    c0,0,0,0,0,0c0,0,0,0,0,0c0,0,0,0,0,0c0,0,0,0,0,0c0,0,0-0.1,0-0.1c0,0,0,0,0,0c0,0,0,0,0,0c0,0,0,0,0,0c0,0,0,0,0,0c0,0,0,0,0,0    c0,0,0,0,0,0c0.1-0.6,0.3-1.2,0.7-1.7c-2.1-2.4-4.3-4.8-6.6-7.1c-7.5,9.3-12.7,19.6-15.3,30.6C944.1,77,948.5,78.7,953.2,80.5z"></path>
		<path class="st0" d="M955.3,107.8c10.2,4.8,21.5,7.2,33.4,7.2c-0.3-3.3-0.8-6.5-1.4-9.6c-0.5,0-0.9-0.1-1.4-0.3c0,0,0,0-0.1,0    c0,0,0,0,0,0h0c0,0,0,0,0,0l0,0c0,0,0,0,0,0c0,0,0,0,0,0l0,0l0,0l0,0c0,0,0,0,0,0c0,0,0,0,0,0v0v0l0,0c0,0,0,0,0,0c0,0,0,0,0,0    c0,0,0,0,0,0l0,0l0,0c0,0,0,0,0,0l0,0c0,0,0,0,0,0l0,0c0,0,0,0,0,0c0,0,0,0,0,0c0,0,0,0,0,0c0,0,0,0,0,0c0,0,0,0,0,0l0,0l0,0    c0,0,0,0-0.1,0c0,0,0,0,0,0c0,0,0,0,0,0c0,0,0,0,0,0c0,0,0,0,0,0c0,0,0,0,0,0c0,0,0,0,0,0c0,0,0,0,0,0c0,0,0,0,0,0c0,0,0,0-0.1,0    l0,0c-1-0.4-2.1-0.9-3.1-1.3c0,0,0,0,0,0c0,0,0,0,0,0c-8.1-3.4-15.5-6.5-22.4-9.2C958.2,98.9,956.7,103.4,955.3,107.8z"></path>
		<path class="st0" d="M937.9,32.9C937.9,32.9,937.9,32.9,937.9,32.9C937.9,32.9,937.9,32.9,937.9,32.9c-0.1,0-0.1,0-0.1,0.1    c0,0,0,0,0,0c0,0,0,0,0,0c-1.3,0.5-2.6,1-3.9,1.6c-7.9,3.2-15.2,6.2-21.9,9.1c2.3,4.4,4.5,8.7,6.5,12.8    c10.6-3.8,20.3-10.1,28.7-18.6c-2.5-2-5.1-4-7.8-5.8c-0.4,0.3-0.8,0.5-1.2,0.7L937.9,32.9z"></path>
		<path class="st0" d="M962.7,149.3c6.5-3.5,13.5-7.3,21.1-11.5h0c0,0,0,0,0,0c1-0.5,1.9-1.1,2.9-1.7c0,0,0,0,0.1,0c0,0,0,0,0,0    c0,0,0,0,0,0c0,0,0,0,0,0c0,0,0,0,0,0c0,0,0,0,0,0c0,0,0,0,0,0c0,0,0,0,0,0c0,0,0,0,0,0c0,0,0,0,0,0c0,0,0,0,0,0c0,0,0,0,0.1,0    c0,0,0,0,0,0c0,0,0,0,0,0c0,0,0,0,0,0c0,0,0,0,0,0l0,0c0,0,0,0,0,0c0,0,0,0,0,0c0,0,0,0,0,0c0,0,0,0,0,0c0,0,0,0,0,0c0,0,0,0,0,0    c0,0,0,0,0,0c0,0,0,0,0,0l0,0c0,0,0,0,0,0c0,0,0,0,0,0c0,0,0,0,0,0c0,0,0,0,0,0c0,0,0,0,0,0c0,0,0,0,0,0c0,0,0,0,0,0c0,0,0,0,0,0    h0c0,0,0,0,0,0c0.4-0.2,0.9-0.4,1.4-0.5c0.2-3.2,0.4-6.5,0.3-9.7c-11.9,1.3-22.8,4.9-32.5,10.8    C958.7,140.4,960.7,144.8,962.7,149.3z"></path>
		<path class="st0" d="M944.9,170.1c3.8,10.7,10.1,20.3,18.6,28.7c2.1-2.5,4-5.1,5.8-7.8c-0.3-0.4-0.6-0.7-0.7-1.2c0,0,0,0,0-0.1    l0,0c0,0,0,0,0,0c0,0,0,0,0,0v0c0,0,0,0,0,0c0,0,0,0,0,0v0c0,0,0,0,0,0l0,0c0,0,0,0,0,0l0,0l0,0c0,0,0,0,0,0v0c0,0,0,0,0,0    c0,0,0,0,0,0l0,0c0,0,0,0,0,0l0,0c0,0,0,0,0,0c0,0,0,0,0,0l0,0c0,0,0,0,0,0c0,0,0,0,0-0.1c0,0,0,0,0,0c0,0,0,0,0,0c0,0,0,0,0,0    c0,0,0,0,0,0c0,0,0,0,0,0c0,0,0,0,0,0c0,0,0,0,0,0c0,0,0,0,0,0c0,0,0,0,0-0.1c0,0,0,0,0,0c-0.4-1.1-0.9-2.1-1.3-3.2    c-3.3-8.1-6.3-15.5-9.3-22.2C953.3,165.8,949,168,944.9,170.1z"></path>
		<path class="st0" d="M920.8,204.7c7,2.1,14.6,4.4,22.8,6.7c1.3,0.4,2.6,0.7,3.9,1.1c0,0,0,0,0,0c0,0,0,0,0,0c0,0,0,0,0,0    c0,0,0,0,0,0c0,0,0,0,0,0c0,0,0,0,0,0c0,0,0,0,0,0c0,0,0,0,0,0c0,0,0,0,0.1,0l0,0c0,0,0,0,0.1,0c0,0,0,0,0,0c0,0,0,0,0,0    c0.5,0.1,1,0.4,1.4,0.6c2.5-2.1,4.8-4.3,7.1-6.6c-9.3-7.5-19.6-12.7-30.6-15.3C924.3,195.6,922.6,200.1,920.8,204.7z"></path>
		<path class="st0" d="M975.8,180.3c5.4-10.1,9.3-21.2,11.5-32.8c-7.1,4-13.9,7.7-20.5,11.2C969.8,165.6,972.8,172.8,975.8,180.3z"></path>
		<path class="st0" d="M928.8,25.5c-10.1-5.4-21.2-9.3-32.8-11.5c4,7.1,7.7,13.9,11.2,20.5C914.1,31.6,921.3,28.6,928.8,25.5z"></path>
		<path class="st0" d="M893.6,206.8c-4.8,10.2-7.2,21.5-7.2,33.4c3.3-0.3,6.4-0.8,9.6-1.4c0.1-0.5,0.2-0.9,0.4-1.4c0,0,0,0,0,0    c0,0,0,0,0,0c0,0,0,0,0,0c0,0,0,0,0,0c0,0,0,0,0,0c0,0,0,0,0,0c0,0,0,0,0,0c0,0,0,0,0,0c0,0,0,0,0,0c0,0,0,0,0,0c0,0,0,0,0,0    c0,0,0,0,0,0c0,0,0,0,0,0c0,0,0,0,0,0v0c0,0,0,0,0,0c0,0,0,0,0,0c0,0,0,0,0,0c0,0,0,0,0,0c0,0,0,0,0,0c0,0,0,0,0,0c0,0,0,0,0,0    c0,0,0,0,0,0c0,0,0,0,0,0c0,0,0,0,0,0c4-9.4,7.5-17.9,10.6-25.8C902.5,209.7,897.9,208.3,893.6,206.8z"></path>
		<path class="st0" d="M908.2,235.9c11.3-3.4,21.9-8.5,31.4-15c-7.8-2.2-15.3-4.4-22.5-6.6C914.3,221.2,911.3,228.4,908.2,235.9z"></path>
		<path class="st0" d="M932.1,113.4c-1.9,4.9-5.3,8.1-9.7,10.4c4.6,1.9,8.3,4.7,10.7,9.3c1.6-3,3.2-6.4,4.9-10.2    C936,119.4,934,116.2,932.1,113.4z"></path>
		<path class="st0" d="M923.4,103.2c-2.4-2-4.6-3.3-6.6-3.7c-5.7-1.1-12.1,4.1-20.2,10.6c0,0-0.1,0.1-0.1,0.1    c-1.7,2.7-3.5,5.5-5.1,8.4c3.1,0.5,6.2,0.9,9.2,1.2c0.3,0,0.5,0,0.8,0C918,116.1,923.8,114.2,923.4,103.2z"></path>
		<path class="st0" d="M883.2,126c-0.2-4.5-4-7.6-8.5-7.4l0.8,16C880,134.3,883.5,130.5,883.2,126z"></path>
		<path class="st0" d="M901.8,130.2c-0.1,0-0.1,0-0.2,0c-3.1,0.7-6.3,1.4-9.5,2.3c1.9,2.6,3.8,5,5.7,7.4c0.2,0.2,0.4,0.3,0.6,0.5    c8.7,5.6,15.6,10,21.1,8.3c2-0.6,4.1-2.1,6.2-4.4C924.9,133.2,918.8,132,901.8,130.2z"></path>
		<path class="st0" d="M902,166.2c-0.3-5.1-5.1-11.1-10.7-18.1c0-0.1-0.1-0.1-0.1-0.2c-2.7-1.7-5.5-3.5-8.4-5.2    c-0.5,2.9-0.8,5.8-1.1,8.7c0,0.5,0,1,0,1.4c2.2,10.1,4,18.1,9.1,20.7c1.9,1,4.3,1.4,7.4,1.3C900.9,171.8,902.2,168.9,902,166.2    C902,166.2,902,166.2,902,166.2z"></path>
		<path class="st0" d="M938,85.9c-0.3,3.4-0.4,6.7-0.2,10c0,0.1,0,0.2,0,0.3c2.1,1.9,4.8,4.1,8.2,6.3c1.3-3.8,2.7-7.9,4.1-12.2    C945.8,88.8,941.8,87.3,938,85.9z"></path>
		<path class="st0" d="M948.2,142.4c-3.1,2.6-5.6,5.1-7.4,7.2c0,0.1,0,0.2,0,0.2c0.2,3.3,0.6,6.6,1.3,10c3.6-1.7,7.5-3.7,11.5-5.7    C951.7,149.9,949.9,146,948.2,142.4z"></path>
		<path class="st0" d="M924.6,157.6c-0.7,0.3-1.4,0.6-2.1,0.8c-4.1,1.3-8.1,1-12-0.1c1,2.4,1.6,4.8,1.7,7.3v0    c0.1,2.3-0.2,4.6-0.9,6.8c3.2-1,6.8-2.2,10.7-3.7C923.1,164.6,924,160.9,924.6,157.6z"></path>
		<path class="st0" d="M906.2,76.8c0.9,2.1,1.5,4.3,1.6,6.6c0.1,2.5-0.2,5-0.9,7.5c3.8-1.6,7.7-2.2,11.9-1.4    c0.7,0.1,1.4,0.3,2.2,0.6c-1-3.2-2.2-6.8-3.7-10.7C913.1,78.3,909.5,77.4,906.2,76.8z"></path>
		<path class="st0" d="M897.8,38.6c-3.5-6.5-7.3-13.5-11.5-21.1c-0.6-1-1.1-2-1.7-3c0,0,0,0,0,0c0,0,0,0,0,0c0,0,0,0,0,0    c0,0,0,0,0,0c0,0,0,0,0,0c0,0,0,0,0,0c0,0,0,0,0,0c0,0,0,0,0,0c0,0,0,0,0,0c0,0,0,0,0,0c0,0,0,0,0-0.1c0,0,0,0,0,0c0,0,0,0,0,0    l0,0c0,0,0,0,0,0c0,0,0,0,0,0c0,0,0,0,0,0v0c0,0,0,0,0,0s0,0,0,0c0,0,0,0,0,0c0,0,0,0,0,0l0,0c0,0,0,0,0,0c0,0,0,0,0,0l0,0    c0,0,0,0,0,0c0,0,0,0,0,0c0,0,0,0,0,0l0,0c0,0,0,0,0,0h0v0c0,0,0,0,0,0c0,0,0,0,0,0c0,0,0,0,0,0c0,0,0,0,0,0c0,0,0,0,0,0v0    c0,0,0,0,0,0c0,0,0,0,0,0c-0.2-0.4-0.4-0.9-0.5-1.3c-3.2-0.2-6.4-0.4-9.6-0.3c1.3,11.9,4.9,22.8,10.8,32.4    C888.9,42.6,893.3,40.6,897.8,38.6z"></path>
		<path class="st0" d="M908.3,59.3c-1.7-3.6-3.7-7.5-5.7-11.5c-4.1,1.8-8,3.6-11.6,5.4c2.6,3.1,5.1,5.6,7.2,7.4    C901,60.5,904.4,60.1,908.3,59.3z"></path>
		<path class="st0" d="M870.2,38.4l0.7,12.6c1.5-0.7,3-1.5,4.6-2.2C873.4,45.5,871.7,42,870.2,38.4z"></path>
		<path class="st0" d="M885.5,77.8c-4.8,3.3-5.7,11.4-6.8,21.8c0,0,0,0,0,0c0,0.1,0,0.2,0,0.3c0.7,3.1,1.4,6.2,2.3,9.4    c2.5-1.9,5-3.8,7.3-5.6c0.2-0.2,0.5-0.5,0.7-0.7c4.8-7.5,8.9-13.9,8.6-19c-0.1-2.7-1.7-5.4-4.8-8.2    C889.7,75.9,887.2,76.6,885.5,77.8z"></path>
		<path class="st0" d="M879.7,69.3c0.6-0.4,1.3-0.8,2-1.2c-3-1.6-6.4-3.2-10.2-4.9l0.8,15.4C873.9,74.9,876.2,71.7,879.7,69.3z"></path>
		<path class="st0" d="M930,71.9c1-3.8,2.2-7.5,3.7-11.1c-3.4,1.9-7,3.5-10.6,4.9c0.7,1.6,1.5,3.1,2.2,4.6    C926.8,70.8,928.4,71.4,930,71.9z"></path>
		<path class="st0" d="M952.4,126.9c3.4-2,6.8-3.7,10.4-5.3c-3.8-1.1-7.4-2.5-11-4.1c-0.6,1.6-1.1,3.2-1.7,4.8    C951,123.8,951.7,125.3,952.4,126.9z"></path>
		<path class="st0" d="M879.1,201.8l0.7,12.5c1.1-3.7,2.5-7.3,4-10.8C882.2,202.9,880.6,202.3,879.1,201.8z"></path>
		<path class="st0" d="M940.5,185.2c-1.9-3.4-3.5-7-4.9-10.6c-1.6,0.8-3.1,1.5-4.6,2.2c-0.5,1.6-1.1,3.2-1.7,4.8    C933.2,182.5,936.9,183.8,940.5,185.2z"></path>
		<path class="st0" d="M915.4,189.5c-4-0.4-7.5-0.3-10.3-0.2c-1.9,2.1-4.1,4.8-6.3,8.1c3.8,1.3,7.9,2.7,12.2,4.1    C912.6,197.3,914.1,193.3,915.4,189.5z"></path>
		<path class="st0" d="M885.9,182.7c-3.8-2-6.4-4.9-8.4-8.5l0.8,15.3c3.6-2.1,6.8-4.1,9.5-6C887.3,183.3,886.6,183,885.9,182.7z"></path>
	</g>
	<g>
		<path class="st0" d="M772.2,304.4H508.6c-2.8,0-5.2-2.2-5.4-5c-0.2-2.8,1.8-5.4,4.6-5.8l375-59.1c0.2,0,0.3,0,0.5-0.1    c29.1-2.1,55.7-15.4,74.9-37.5c19.1-22.1,28.5-50.3,26.4-79.4c-2.1-29.1-15.4-55.7-37.5-74.9c-22.1-19.1-50.3-28.5-79.4-26.4    c-3,0.2-5.6-2-5.8-5c-0.2-3,2-5.6,5-5.8c32-2.3,63.1,8,87.3,29.1c24.3,21,38.9,50.3,41.2,82.3c4.7,66.1-45.1,123.7-111.2,128.5    l-306.1,48.2h194.1c3,0,5.4,2.4,5.4,5.4S775.2,304.4,772.2,304.4z"></path>
	</g>
</g>
<g>
	<path class="st0" d="M241.1,142.4l-6.7,43.2l1.1-0.2c15.2-2.4,26.5-20.7,25.7-34.9c-0.6-10.7-8.1-19.2-26.1-16.4   c-22.2,3.5-46.7,22.2-45.1,53.3c0.5,9.6,3.1,10.7,3.3,12.4c-12.5,2-20.6-1.5-21.2-14.1c-1.4-26,30.4-55.2,66.3-60.8   c27.9-4.4,41.2,8.1,42,23.5c0.6,11.1-5.4,24-17.4,33c16.3,0.6,23.3,12.7,24,26.8c1,18.1-7,55.8-38.7,60.8   c-8.2,1.3-18.9,0.5-19.5-11c-0.2-3,0.4-6.7,1.9-11.3c5,4.1,8.7,5.5,13.1,4.8c13.9-2.2,17.8-22.6,17-36.9   c-0.7-13.2-5.4-23.3-19.3-21.1c-1.5,0.2-5.3,1-8.7,1.9l-11.8,74.6l-27.4,4.3l19.5-123.9L241.1,142.4z"></path>
	<path class="st0" d="M366.7,180.9c0.8,0.3,1.5,0.1,2.1,0c8.7-1.4,20.8-9,28.7-15.9l2,4.8c-6.8,8.9-19,16.5-32.8,21   c-1.2,35.3-19,60.2-42.4,63.9c-17.7,2.8-30.8-3.5-32-24.9c-1.1-21.7,9.4-68.9,48.5-75.1C357.1,152,365.7,161.1,366.7,180.9z    M350.9,193.8c-4-0.3-5.3-3.3-5.5-7.1c-0.3-5.3,2-9.1,5.3-11.1c-0.8-7.9-2.9-10.6-7.8-9.8c-13.5,2.1-23.4,38.5-22.5,56.9   c0.7,12.4,3.3,14.9,10.5,13.7C340.3,235,349.1,216.5,350.9,193.8z"></path>
	<path class="st0" d="M462.1,137.1l-10.3,66.2c-0.4,2.5-0.5,4.5-0.4,6.2c0.3,5.3,2.8,6.6,8.2,5.7c7.4-1.2,12.2-9.1,14.5-19l8-1.3   c-9.2,32.4-26.1,39.3-36.3,40.9c-10.8,1.7-18-3.4-19.7-14.9c-8.7,16.9-19.2,21.1-27.2,22.3c-11.4,1.8-20.7-3.6-21.5-19.4   c-0.2-3.6,0.2-7.8,0.9-12.5l9.7-62.5l27.4-4.3l-10.3,66.2c-0.3,1.9-0.4,3.7-0.3,5.4c0.2,4.3,1.9,7.5,6.1,6.8   c7.4-1.2,12-9.1,14.3-19l9.7-62.5L462.1,137.1z"></path>
	<path class="st0" d="M516,98.5l-4.9,30.8l11.4-1.8l-1.1,7.8l-11.4,1.8l-9.2,58.4c-0.4,2.5-0.5,4.5-0.4,6.2c0.3,5.3,2.8,6.6,8.2,5.7   c7.4-1.2,13.9-9.4,16.2-19.3l8-1.3c-9.2,32.4-27.8,39.5-38,41.2c-11.4,1.8-20.7-3.6-21.5-19.4c-0.2-3.6,0.2-7.8,0.9-12.5l8.6-54.7   l-6.3,1l1.1-7.8l6.3-1l4.3-26.9L516,98.5z"></path>
	<path class="st0" d="M561.8,121.3l-10.3,66.2c-0.4,2.5-0.5,4.5-0.4,6.2c0.3,5.3,2.8,6.6,8.2,5.7c7.4-1.2,13.9-9.4,16.2-19.3l8-1.3   c-9.2,32.4-27.8,39.5-38,41.2c-11.4,1.8-20.7-3.6-21.5-19.4c-0.2-3.6,0.2-7.8,0.9-12.5l9.7-62.5L561.8,121.3z M551.1,82.5   c8.4-1.3,15.6,4.4,16,12.7s-6.1,16-14.4,17.3c-8.4,1.3-15.4-4.2-15.8-12.5C536.5,91.7,542.8,83.8,551.1,82.5z"></path>
	<path class="st0" d="M663.2,105.2l-23.3,146.7l-26.8,3.7l9-58.2c-5.2,6.7-12.4,12.4-22.1,13.9c-12.9,2-25.7-3.9-26.9-26.3   c-1.3-25.4,12.3-68.4,45.3-73.7c10.8-1.7,15.6,1.7,15.9,7.5l1.4-9.3L663.2,105.2z M601.2,177.9c0.8,14.5,6.9,13.7,10.3,13.2   c4.9-0.8,11.5-6.4,14.1-15.7l7.6-48.1c-0.5-2.2-2.6-6-8.1-5.2C608.9,124.7,600.3,160.2,601.2,177.9z"></path>
	<path class="st0" d="M751.8,91.2l-10.3,66.2c-0.4,2.5-0.5,4.5-0.4,6.2c0.3,5.3,2.8,6.6,8.2,5.7c7.4-1.2,12.2-9.1,14.5-19l8-1.3   c-9.2,32.4-26.1,39.3-36.3,40.9c-10.8,1.7-18-3.4-19.8-14.9c-8.7,16.9-19.2,21.1-27.2,22.4c-11.4,1.8-20.7-3.6-21.5-19.4   c-0.2-3.6,0.2-7.8,0.9-12.5l9.7-62.5l27.4-4.3l-10.3,66.2c-0.3,1.9-0.4,3.7-0.3,5.4c0.2,4.3,1.9,7.5,6.1,6.8   c7.4-1.2,12-9.1,14.3-19l9.7-62.5L751.8,91.2z"></path>
	<path class="st0" d="M801.8,161.3c7.2-1.1,16.1-7.3,21.9-13.5c-2.9,22.1-16.2,30.7-31.4,33.1c-17.7,2.8-29.9-4-31-25.3   c-1.1-21.7,8.8-69,47.7-75.2c16.9-2.7,21.4,5.4,21.9,14.8c1.2,21.9-18.9,41.7-41.6,46.7c-0.1,1.9-0.2,4-0.1,5.7   C789.8,159.4,795.2,162.4,801.8,161.3z M811.1,90.2c-9.5,1.5-17.9,23.9-20.9,42.4c14.8-3.1,26.9-19.7,26.1-35.5   C816,92.4,814.7,89.6,811.1,90.2z"></path>
</g>
</svg>