<svg xmlns="http://www.w3.org/2000/svg" xmlns:xlink="http://www.w3.org/1999/xlink" id="Layer_1" x="0px" y="0px" viewBox="0 0 1000 139.2" style="enable-background:new 0 0 1000 139.2;" xml:space="preserve">
<style type="text/css">
	.st0{fill:#878787;}
</style>
<g>
	<path class="st0" d="M24.9,20.9v41.8h43.1v14.1H24.9v43.9h53.2v14.1H7.2V6.8h69.4l-2,14.1H24.9z"></path>
	<path class="st0" d="M132,102.8l-9.7,32.2h-17.9L145.6,6.8h22.3l40.9,128.1h-18.6l-9.7-32.2H132z M156.4,21.5l-20.1,67h40   L156.4,21.5z"></path>
	<path class="st0" d="M315,19.4l-10,11.2c-9.3-8.2-18.2-11.5-28.8-11.5c-12.8,0-23.1,6-23.1,18.2c0,10.8,5,16,28.1,23.1   c20.5,6.3,37.9,14.3,37.9,38.9c0,22.3-16.9,37.9-45.8,37.9c-18.4,0-32.9-6.1-43.5-16.6l10.2-11.3c8.7,8.4,19.2,13.4,33.1,13.4   c15.1,0,27.5-7.4,27.5-22.9c0-12.5-6-18-27.7-24.7C248.1,67.4,235,57.9,235,38c0-19.7,16.7-33.5,40.4-33.5   C293.1,4.6,304.2,9.8,315,19.4z"></path>
	<path class="st0" d="M396.8,21.9v113.1h-17.7V21.9h-36.5V6.8h91.5l-1.9,15.1H396.8z"></path>
	<path class="st0" d="M625,119.5l-2,15.4h-68.3V6.8h17.7v112.7H625z"></path>
	<path class="st0" d="M672.6,102.8l-9.7,32.2H645L686.1,6.8h22.3l40.9,128.1h-18.6l-9.7-32.2H672.6z M696.9,21.5l-20.1,67h40   L696.9,21.5z"></path>
	<path class="st0" d="M875.3,70.2c0,52.3-32.5,64.7-60.3,64.7h-30.7V6.8h26.8C843.8,6.8,875.3,17,875.3,70.2z M802,121h14.3   c20.1,0,40.2-8.6,40.2-50.8c0-43.3-21-49.3-41.5-49.3h-13V121z"></path>
	<path class="st0" d="M951.5,134.9h-17.9V85.8l-41.3-79h19.5l31.2,63.4l31.2-63.4h18.4l-41.3,78.9V134.9z"></path>
</g>
</svg>