<svg xmlns="http://www.w3.org/2000/svg" xmlns:xlink="http://www.w3.org/1999/xlink" id="Layer_1" x="0px" y="0px" viewBox="0 0 1000 239.2" style="enable-background:new 0 0 1000 239.2;" xml:space="preserve">
<style type="text/css">
	.st0{fill:#878787;}
</style>
<g>
	<g>
		<path class="st0" d="M239.1,206.4v5.2c0,6.5-3.1,10-9.5,10h-3v15.2h-6.3v-40.3h9.3C236,196.4,239.1,199.9,239.1,206.4z     M226.7,202.2v13.6h3c2,0,3.1-0.9,3.1-3.8v-6c0-2.9-1.1-3.8-3.1-3.8H226.7z"></path>
		<path class="st0" d="M273.2,236.7c-0.4-1.1-0.6-1.7-0.6-5v-6.3c0-3.8-1.3-5.2-4.2-5.2h-2.2v16.4H260v-40.3h9.6    c6.6,0,9.4,3,9.4,9.3v3.2c0,4.1-1.3,6.8-4.1,8.2c3.2,1.3,4.2,4.4,4.2,8.6v6.2c0,2,0.1,3.4,0.7,4.9H273.2z M266.3,202.2v12.4h2.5    c2.4,0,3.8-1.1,3.8-4.3v-4c0-2.9-1-4.2-3.2-4.2H266.3z"></path>
		<path class="st0" d="M307.4,213.4h8.7v5.8h-8.7V231h10.9v5.8H301v-40.3h17.3v5.8h-10.9V213.4z"></path>
		<path class="st0" d="M353.6,225l4.3-28.6h8.8v40.3h-6v-28.9l-4.4,28.9h-6l-4.7-28.5v28.5h-5.5v-40.3h8.8L353.6,225z"></path>
		<path class="st0" d="M389.3,196.4h6.3v40.3h-6.3V196.4z"></path>
		<path class="st0" d="M424.1,196.4v31.1c0,2.9,1.3,3.9,3.3,3.9s3.3-1.1,3.3-3.9v-31.1h6v30.7c0,6.4-3.2,10.1-9.5,10.1    c-6.2,0-9.5-3.7-9.5-10.1v-30.7H424.1z"></path>
		<path class="st0" d="M472.4,225l4.3-28.6h8.8v40.3h-6v-28.9l-4.4,28.9h-6l-4.7-28.5v28.5h-5.5v-40.3h8.8L472.4,225z"></path>
		<path class="st0" d="M516.4,206.1c0-6.5,3.4-10.1,9.6-10.1c6.2,0,9.6,3.7,9.6,10.1v21c0,2.2-0.4,4.1-1.2,5.6    c0.3,0.7,0.7,0.9,1.8,0.9h0.6v5.7H536c-2.8,0-4.6-1-5.5-2.8c-1.3,0.5-2.8,0.7-4.4,0.7c-6.2,0-9.6-3.7-9.6-10.1V206.1z     M522.8,227.5c0,2.9,1.3,4,3.3,4c2,0,3.3-1.1,3.3-4v-21.8c0-2.9-1.3-4-3.3-4c-2,0-3.3,1.1-3.3,4V227.5z"></path>
		<path class="st0" d="M563.8,196.4v31.1c0,2.9,1.3,3.9,3.3,3.9c2,0,3.3-1.1,3.3-3.9v-31.1h6v30.7c0,6.4-3.2,10.1-9.5,10.1    c-6.2,0-9.5-3.7-9.5-10.1v-30.7H563.8z"></path>
		<path class="st0" d="M619.1,236.7h-6.4l-1.1-7.3h-7.8l-1.1,7.3h-5.8l6.5-40.3h9.3L619.1,236.7z M604.6,224h6.1l-3-20.4L604.6,224z    "></path>
		<path class="st0" d="M639.9,196.4h6.3V231h10.4v5.8h-16.8V196.4z"></path>
		<path class="st0" d="M677.4,196.4h6.3v40.3h-6.3V196.4z"></path>
		<path class="st0" d="M704.4,196.4H724v5.8h-6.7v34.6H711v-34.6h-6.6V196.4z"></path>
		<path class="st0" d="M750.6,223.4l-8-27h6.6l4.8,18.4l4.9-18.4h6l-8,27v13.4h-6.3V223.4z"></path>
	</g>
	<g>
		<path class="st0" d="M85.7,6.1h29v129.7h-29v-51H34.1v51H5.2V6.1h28.9v54.2h51.6V6.1z"></path>
		<path class="st0" d="M263.6,117.9c-13.1,12.8-29.2,19.2-48.4,19.2s-35.3-6.4-48.5-19.2C153.6,105.1,147,89.1,147,70.1    s6.6-35,19.7-47.8C179.8,9.5,196,3.1,215.2,3.1s35.3,6.4,48.4,19.2c13.1,12.8,19.7,28.7,19.7,47.8S276.7,105.1,263.6,117.9z     M253.7,70.2c0-11.6-3.7-21.4-11.1-29.6c-7.4-8.2-16.5-12.3-27.4-12.3c-10.8,0-20,4.1-27.4,12.3c-7.4,8.2-11.1,18-11.1,29.6    c0,11.6,3.7,21.4,11.1,29.5c7.4,8.1,16.5,12.2,27.4,12.2c10.8,0,20-4,27.4-12.2C250,91.6,253.7,81.8,253.7,70.2z"></path>
		<path class="st0" d="M344.9,31.9c-2.8,2.3-4.2,5.3-4.2,9.1c0,3.8,1.7,6.8,5.1,9c3.4,2.2,11.3,4.9,23.6,7.9    c12.3,3,21.8,7.6,28.7,13.6c6.8,6.1,10.2,14.9,10.2,26.5c0,11.6-4.4,21.1-13.1,28.3c-8.7,7.2-20.2,10.9-34.4,10.9    c-20.5,0-39-7.6-55.5-22.8l17.3-21.1c14,12.3,26.9,18.4,38.8,18.4c5.3,0,9.5-1.1,12.5-3.4c3-2.3,4.5-5.4,4.5-9.3    c0-3.9-1.6-7-4.8-9.3c-3.2-2.3-9.6-4.6-19.1-7c-15.1-3.6-26.1-8.3-33.1-14c-7-5.7-10.5-14.8-10.5-27.1c0-12.3,4.4-21.8,13.3-28.5    c8.8-6.7,19.9-10,33.1-10c8.6,0,17.3,1.5,26,4.5c8.6,3,16.2,7.2,22.6,12.6l-14.7,21.2c-11.3-8.5-22.9-12.8-34.9-12.8    C351.4,28.5,347.6,29.7,344.9,31.9z"></path>
		<path class="st0" d="M549.9,117.9c-13.1,12.8-29.2,19.2-48.4,19.2c-19.2,0-35.3-6.4-48.4-19.2c-13.1-12.8-19.7-28.7-19.7-47.8    s6.5-35,19.7-47.8c13.1-12.8,29.2-19.2,48.4-19.2c19.2,0,35.3,6.4,48.4,19.2C563,35.1,569.6,51,569.6,70.1S563,105.1,549.9,117.9z     M540.1,70.2c0-11.6-3.7-21.4-11.1-29.6c-7.4-8.2-16.5-12.3-27.4-12.3c-10.8,0-20,4.1-27.4,12.3c-7.4,8.2-11.1,18-11.1,29.6    c0,11.6,3.7,21.4,11.1,29.5c7.4,8.1,16.5,12.2,27.4,12.2c10.8,0,20-4,27.4-12.2C536.4,91.6,540.1,81.8,540.1,70.2z"></path>
		<path class="st0" d="M707.2,49.1c0,20.8-8.2,34.2-24.7,40.3l32.9,46.4h-35.6L651,94.4h-20v41.4H602V6.1h49.2    c20.1,0,34.5,3.4,43.2,10.2C702.9,23.1,707.2,34,707.2,49.1z M672.3,64.5c3.6-3.2,5.4-8.3,5.4-15.3c0-7-1.8-11.8-5.5-14.4    c-3.7-2.6-10.2-3.9-19.5-3.9H631v38.4h21.1C662,69.3,668.8,67.7,672.3,64.5z"></path>
		<path class="st0" d="M838.3,6.1v25.8h-64.6v26.7h58.1v24.7h-58.1v26.9h66.6v25.6h-95.6V6.1H838.3z"></path>
		<path class="st0" d="M964.8,6.1h29v129.7h-29L903,54.5v81.3h-29V6.1h27.1l63.6,83.5V6.1z"></path>
	</g>
</g>
</svg>