<svg xmlns="http://www.w3.org/2000/svg" xmlns:xlink="http://www.w3.org/1999/xlink" id="Layer_1" x="0px" y="0px" viewBox="0 0 1000 255.8" style="enable-background:new 0 0 1000 255.8;" xml:space="preserve">
<style type="text/css">
	.st0{fill:#878787;}
</style>
<g>
	<g>
		<path class="st0" d="M83.4,111.7c0,19.2-11.7,27.3-34.2,27.3h-44v-5.6l8.6-5.8c0-37.7,0-75.2,0-112.9l-7.3-5V4.4H49    c17.9,0,30.4,4.8,30.4,24.6v19.4c0,7.5-3.8,14.8-10.8,17.7c8.8,3.5,14.8,10.4,14.8,22.9V111.7z M48.8,127.4    c10.2,0,14.6-5.8,14.6-15.8V89c0-11.2-4.4-16.5-16.3-16.5H33.2c0,15,0,32.7,0,47.7c0,3.5-0.8,5.2-4,6.4v1H48.8z M59.4,48.4V29    c0-7.3-4-13.5-11.9-13.5H33.2c0,16.7,0,30.6,0,47.3c5.4,0,8.8,0,14.2,0C55.9,62.8,59.4,57.2,59.4,48.4z"></path>
		<path class="st0" d="M118.4,139v-5.6l8.6-5.8c0-37.9,0-75.8,0-113.4l-7.3-5v-5c23.5,0,45,0,68.4,0v30.2h-9.6l-5.4-18.9H147    c0,16.7,0,33.7,0,50.6h18.5l5-10.6h5.8c0,9.4,0,23.1,0,32.5h-5.8l-5-10.2H147c0,14.2,0,28.3,0,42.5c0,3.1-0.8,4.8-4,6v1    c11,0,21.7,0,32.7,0l6.5-18.4h8.5V139C166.6,139,142.6,139,118.4,139z"></path>
		<path class="st0" d="M236,129.5l6.9,3.5v6h-26.3v-6l6.9-3.7c9.6-39.8,20.4-86.3,30.2-125.9h19.8l31,125.4l6.9,4.2v6h-34.2v-5    l6.9-4.2l-6.3-27.1h-35.4L236,129.5z M244.9,91.6h30.2l-15-64.8h-0.2L244.9,91.6z"></path>
		<path class="st0" d="M384.3,96.7c-3.8-10.4-7.3-13.1-18.7-13.1c0,12.1,0,31.7,0,44l8.5,5.8v5.6c-11.2,0-25.4,0-36.5,0v-5.6    l8.5-5.8c0-37.3,0-75.6,0-112.9l-7.1-5V4.2h39c20.8,0,37.7,7.9,37.7,31.3V53c0,16.5-9.2,25.8-21.7,28.3c5.8,3.1,8.3,6.7,10.4,12.7    l9,24.8c1.9,5.2,5.4,12.7,11.5,11.3v7.5c-3.8,1.9-9.8,2.5-14,2.5c-12.1,0-13.3-8.7-17.1-18.9L384.3,96.7z M365.4,16.1    c0,21,0,35.4,0,56.3h12.3c12.9,0,17.9-7.1,17.9-19.4V35.5c0-12.3-4.4-19.4-17.7-19.4H365.4z"></path>
		<path class="st0" d="M531.9,111.7c0,19.2-11.7,27.3-34.2,27.3h-44v-5.6l8.6-5.8c0-37.7,0-75.2,0-112.9l-7.3-5V4.4h42.5    c17.9,0,30.4,4.8,30.4,24.6v19.4c0,7.5-3.8,14.8-10.8,17.7c8.8,3.5,14.8,10.4,14.8,22.9V111.7z M497.3,127.4    c10.2,0,14.6-5.8,14.6-15.8V89c0-11.2-4.4-16.5-16.3-16.5h-13.9c0,15,0,32.7,0,47.7c0,3.5-0.8,5.2-4,6.4v1H497.3z M507.9,48.4V29    c0-7.3-4-13.5-11.9-13.5h-14.2c0,16.7,0,30.6,0,47.3c5.4,0,8.8,0,14.2,0C504.4,62.8,507.9,57.2,507.9,48.4z"></path>
		<path class="st0" d="M613.6,96.7c-3.8-10.4-7.3-13.1-18.6-13.1c0,12.1,0,31.7,0,44l8.5,5.8v5.6c-11.2,0-25.4,0-36.5,0v-5.6    l8.5-5.8c0-37.3,0-75.6,0-112.9l-7.1-5V4.2h39c20.8,0,37.7,7.9,37.7,31.3V53c0,16.5-9.2,25.8-21.7,28.3c5.8,3.1,8.3,6.7,10.4,12.7    l9,24.8c1.9,5.2,5.4,12.7,11.5,11.3v7.5c-3.8,1.9-9.8,2.5-14,2.5c-12.1,0-13.3-8.7-17.1-18.9L613.6,96.7z M594.8,16.1    c0,21,0,35.4,0,56.3h12.3C620,72.4,625,65.3,625,53V35.5c0-12.3-4.4-19.4-17.7-19.4H594.8z"></path>
		<path class="st0" d="M695.1,129.5l6.9,3.5v6h-26.3v-6l6.9-3.7C692.2,89.5,703,43,712.8,3.4h19.8l30.9,125.4l6.9,4.2v6h-34.2v-5    l6.9-4.2l-6.3-27.1h-35.4L695.1,129.5z M704,91.6h30.2l-15-64.8H719L704,91.6z"></path>
		<path class="st0" d="M827,133v6c-9.4,0-20.6,0-30,0v-6l8.1-5c0-37.7,0-75.6,0-113.2l-7.3-5V4.2c9.2,0,13.7,0,22.7,0    c8.5,0,10,0.8,12.1,8.1l18.8,60l8.7,37.7h0.4c0-9.8-0.8-22.7-0.8-32.5V15.1l-7.3-5v-6c9.4,0,18.8,0,28.3,0v6l-7.3,5    c0,41.3,0,82.5,0,123.8h-16.5c-4.6,0-7.1-2.7-8.3-6.5L817.2,24.7l-0.6,0.2l2.3,19.2c0,27.9,0,56,0,83.8L827,133z"></path>
		<path class="st0" d="M956.2,4.2c23.1,0,38.7,9.6,38.7,34.8v64.6c0,23.8-16.2,35.4-38.7,35.4h-41.5v-5.6l8.5-5.8V15.5l-7.3-5.8V4.2    H956.2z M943.3,15.9v103.8c0,3.3-1,5-4.2,6l0.2,1.1h16.9c14.2-0.2,18.7-10.4,18.7-23.3V39c0-12.7-4.4-22.9-18.7-23.1H943.3z"></path>
	</g>
	<g>
		<path class="st0" d="M218.1,221c-0.8,0.6-1.2,1.5-1.2,2.6c0,1.1,0.5,1.9,1.4,2.5c1,0.6,3.2,1.4,6.6,2.2c3.5,0.9,6.1,2.1,8.1,3.8    c1.9,1.7,2.9,4.2,2.9,7.5c0,3.3-1.2,5.9-3.7,8c-2.5,2-5.7,3.1-9.7,3.1c-5.8,0-11-2.1-15.6-6.4l4.9-6c3.9,3.4,7.6,5.2,10.9,5.2    c1.5,0,2.7-0.3,3.5-1c0.8-0.6,1.3-1.5,1.3-2.6c0-1.1-0.5-2-1.4-2.6c-0.9-0.6-2.7-1.3-5.4-2c-4.2-1-7.4-2.3-9.3-3.9    c-2-1.6-3-4.2-3-7.6c0-3.5,1.2-6.1,3.7-8c2.5-1.9,5.6-2.8,9.3-2.8c2.4,0,4.9,0.4,7.3,1.3c2.4,0.8,4.6,2,6.4,3.6l-4.1,5.9    c-3.2-2.4-6.4-3.6-9.8-3.6C219.9,220.1,218.9,220.4,218.1,221z"></path>
		<path class="st0" d="M272.5,240.8c1.4,1.7,3.2,2.5,5.5,2.5c2.3,0,4.1-0.8,5.5-2.5c1.3-1.7,2-4,2-6.9v-20.1h8.1v20.4    c0,5.3-1.5,9.4-4.4,12.2c-2.9,2.9-6.7,4.3-11.2,4.3c-4.6,0-8.3-1.4-11.2-4.3c-2.9-2.9-4.4-6.9-4.4-12.2v-20.4h8.1v20.1    C270.4,236.8,271.1,239.1,272.5,240.8z"></path>
		<path class="st0" d="M347.1,217c2.6,2.2,3.8,5.5,3.8,10c0,4.5-1.3,7.8-3.9,9.9c-2.6,2.1-6.6,3.1-12,3.1h-4.9v10.2H322v-36.5h12.9    C340.5,213.7,344.6,214.8,347.1,217z M341.1,231.4c1-1.1,1.5-2.7,1.5-4.8c0-2.1-0.6-3.6-1.9-4.5c-1.3-0.9-3.2-1.3-5.9-1.3h-4.6    V233h5.5C338.3,233,340.2,232.5,341.1,231.4z"></path>
		<path class="st0" d="M403.6,213.7v7.3h-18.2v7.5h16.3v6.9h-16.3v7.6h18.7v7.2h-26.9v-36.5H403.6z"></path>
		<path class="st0" d="M461,225.9c0,5.8-2.3,9.6-6.9,11.3l9.2,13h-10l-8.1-11.6h-5.6v11.6h-8.1v-36.5h13.8c5.7,0,9.7,1,12.1,2.9    C459.8,218.5,461,221.6,461,225.9z M451.2,230.2c1-0.9,1.5-2.4,1.5-4.3c0-2-0.5-3.3-1.6-4.1c-1-0.7-2.9-1.1-5.5-1.1h-6.1v10.8h6    C448.3,231.5,450.2,231.1,451.2,230.2z"></path>
		<path class="st0" d="M517.2,218.5c3.5,3.2,5.2,7.6,5.2,13.3c0,5.7-1.7,10.2-5.1,13.5c-3.4,3.3-8.6,5-15.5,5h-12.5v-36.5h12.9    C508.7,213.7,513.7,215.3,517.2,218.5z M511.2,240.2c2-1.9,3-4.6,3-8.2c0-3.6-1-6.3-3-8.3c-2-1.9-5.1-2.9-9.2-2.9h-4.5V243h5.2    C506.4,243,509.2,242.1,511.2,240.2z"></path>
		<path class="st0" d="M575.8,213.7v7.3h-18.2v7.5h16.3v6.9h-16.3v7.6h18.7v7.2h-26.9v-36.5H575.8z"></path>
		<path class="st0" d="M612.1,221c-0.8,0.6-1.2,1.5-1.2,2.6c0,1.1,0.5,1.9,1.4,2.5c1,0.6,3.2,1.4,6.6,2.2c3.5,0.9,6.1,2.1,8.1,3.8    c1.9,1.7,2.9,4.2,2.9,7.5c0,3.3-1.2,5.9-3.7,8c-2.5,2-5.7,3.1-9.7,3.1c-5.8,0-11-2.1-15.6-6.4l4.9-6c3.9,3.4,7.6,5.2,10.9,5.2    c1.5,0,2.7-0.3,3.5-1c0.8-0.6,1.3-1.5,1.3-2.6c0-1.1-0.5-2-1.4-2.6c-0.9-0.6-2.7-1.3-5.4-2c-4.2-1-7.4-2.3-9.3-3.9    c-2-1.6-3-4.2-3-7.6c0-3.5,1.2-6.1,3.7-8c2.5-1.9,5.6-2.8,9.3-2.8c2.4,0,4.9,0.4,7.3,1.3c2.4,0.8,4.6,2,6.4,3.6l-4.1,5.9    c-3.2-2.4-6.4-3.6-9.8-3.6C613.9,220.1,612.9,220.4,612.1,221z"></path>
		<path class="st0" d="M656.8,213.7h8.1v36.5h-8.1V213.7z"></path>
		<path class="st0" d="M717.6,231.6h8.2v13c-3.6,4-8.6,6-15,6c-5.4,0-9.9-1.8-13.5-5.3c-3.6-3.6-5.5-8-5.5-13.4    c0-5.4,1.9-9.9,5.6-13.6c3.7-3.6,8.2-5.4,13.4-5.4c5.2,0,9.8,1.7,13.7,5.2l-4.2,6.1c-1.6-1.4-3.1-2.4-4.5-2.9    c-1.4-0.5-2.9-0.8-4.5-0.8c-3.1,0-5.7,1.1-7.8,3.2c-2.1,2.1-3.2,4.9-3.2,8.3c0,3.5,1,6.2,3.1,8.3c2,2.1,4.5,3.1,7.3,3.1    c2.8,0,5.2-0.5,7-1.6V231.6z"></path>
		<path class="st0" d="M778.5,213.7h8.1v36.5h-8.1l-17.4-22.9v22.9H753v-36.5h7.6l17.9,23.5V213.7z"></path>
	</g>
</g>
</svg>